<svg width="591" height="578" viewBox="0 0 591 578" fill="none" xmlns="http://www.w3.org/2000/svg">
<mask id="mask0_1039_973" style="mask-type:luminance" maskUnits="userSpaceOnUse" x="405" y="351" width="104" height="117">
<path d="M508.454 351.846H405.383V467.163H508.454V351.846Z" fill="white"/>
</mask>
<g mask="url(#mask0_1039_973)">
<path d="M381.547 411.243L383.567 413.503L388.535 419.062L393.502 424.621L398.472 430.178L403.439 435.736L408.409 441.295L413.378 446.854L418.346 452.412L423.314 457.97L433.014 468.82L433.257 469.09L438.226 474.649L443.194 480.207L448.162 485.766L453.131 491.324L455.38 493.838C455.065 493.831 454.751 493.821 454.438 493.809L451.948 491.025L446.981 485.467L442.01 479.905L437.043 474.346L432.073 468.787L427.105 463.229L422.138 457.67L417.17 452.112L412.202 446.553L407.233 440.995L402.265 435.436L397.297 429.876L392.328 424.317L387.36 418.759L382.392 413.2L381.58 412.291C381.562 411.946 381.552 411.596 381.547 411.243Z" fill="#2887FA"/>
<path d="M381.836 417.126L383.568 419.062L388.537 424.621L393.505 430.178L398.474 435.736L408.168 446.581L408.411 446.852L413.38 452.41L418.348 457.968L423.315 463.527L428.283 469.086L433.253 474.645L438.222 480.203L443.191 485.762L448.159 491.321L450.119 493.511C449.782 493.477 449.444 493.447 449.109 493.409L442.249 485.735L442.009 485.464L437.041 479.906L432.071 474.347L427.102 468.788L422.134 463.229L417.167 457.671L412.199 452.113L407.229 446.553L402.262 440.995L397.294 435.436L392.325 429.877L387.355 424.318L382.384 418.76L381.928 418.251C381.894 417.88 381.866 417.502 381.836 417.126Z" fill="#2887FA"/>
<path d="M421.981 484.264C421.305 483.869 420.635 483.462 419.972 483.043L417.168 479.905L412.2 474.345L407.231 468.786L402.263 463.228L397.295 457.67L392.326 452.111L391.201 450.854C390.828 450.111 390.464 449.362 390.109 448.605L393.51 452.41L398.479 457.968L408.17 468.816L408.412 469.086L413.381 474.644L418.349 480.203L421.981 484.264Z" fill="#2887FA"/>
<path d="M430.914 488.706C430.418 488.501 429.925 488.292 429.434 488.077L427.102 485.465L422.134 479.906L417.167 474.347L412.199 468.788L407.229 463.23L402.262 457.671L397.294 452.113L392.324 446.554L387.357 440.996L386.703 440.263C386.51 439.713 386.323 439.162 386.141 438.607L388.541 441.294L393.509 446.852L398.478 452.41L403.446 457.969L408.416 463.528L413.385 469.087L418.353 474.645L423.32 480.204L430.914 488.706Z" fill="#2887FA"/>
<path d="M432.068 485.464L427.1 479.906L422.132 474.347L417.163 468.788L412.195 463.229L407.226 457.671L402.258 452.113L397.29 446.553L392.321 440.995L387.353 435.436L384.229 431.938C384.114 431.47 383.998 431.004 383.891 430.533L388.536 435.731L393.504 441.29L398.473 446.848L403.441 452.407L408.41 457.965L413.38 463.524L418.348 469.083L423.315 474.642L428.283 480.2L433.251 485.759L438.126 491.212C437.705 491.092 437.293 490.962 436.872 490.833L432.068 485.464Z" fill="#2887FA"/>
<path d="M437.041 485.466L432.072 479.908L427.104 474.349L417.41 463.501L417.169 463.232L412.201 457.673L407.232 452.115L397.294 440.997L392.325 435.438L387.357 429.879L382.76 424.736C382.694 424.319 382.633 423.91 382.57 423.497L386.057 427.398L388.541 430.176L393.509 435.734L398.478 441.293L403.446 446.851L408.415 452.41L413.383 457.968L418.352 463.527L423.32 469.086L428.288 474.645L433.256 480.203L438.225 485.762L443.193 491.32L444.423 492.697C444.053 492.627 443.683 492.56 443.315 492.485L442.008 491.022L437.041 485.466Z" fill="#2887FA"/>
<path d="M504.188 343.806C508.449 347.658 512.289 351.953 515.641 356.618L511.569 352.063L506.601 346.504L504.188 343.806Z" fill="#2887FA"/>
<path d="M382.537 395.681L383.564 396.828L388.531 402.387L393.499 407.945L398.468 413.504L403.436 419.063L408.406 424.622L413.373 430.178L418.341 435.737L423.309 441.296L428.277 446.854L433.244 452.412L438.214 457.971L443.183 463.53L448.151 469.089L453.12 474.647L458.088 480.206L463.057 485.765L468.027 491.323L469.276 492.723C469.015 492.772 468.753 492.824 468.489 492.87L461.873 485.467L456.904 479.908L451.936 474.349L442.241 463.502L442 463.232L437.032 457.673L432.062 452.115L427.1 446.555L422.133 440.997L417.165 435.438L412.197 429.878L407.228 424.319L402.26 418.761L397.292 413.203L392.323 407.644L387.355 402.084L382.414 396.556C382.454 396.266 382.497 395.975 382.537 395.681Z" fill="#2887FA"/>
<path d="M381.943 400.576L383.562 402.387L388.53 407.945L393.497 413.504L398.467 419.064L405.92 427.402L408.404 430.18L413.372 435.739L418.341 441.298L423.309 446.856L428.277 452.414L433.244 457.973L438.214 463.532L443.182 469.091L448.149 474.649L453.119 480.208L458.086 485.767L463.056 491.325L464.902 493.389C464.624 493.422 464.344 493.451 464.069 493.48L461.876 491.026L456.906 485.468L451.938 479.909L446.971 474.35L442.001 468.791L437.034 463.233L432.064 457.674L427.096 452.116L417.16 440.997L412.187 435.439L407.218 429.88L399.179 420.884L397.282 418.76L392.312 413.201L387.344 407.642L382.377 402.083L381.859 401.505C381.888 401.199 381.914 400.887 381.943 400.576Z" fill="#2887FA"/>
<path d="M381.602 405.75L383.564 407.945L388.531 413.504L393.499 419.063L398.468 424.622L403.436 430.179L408.406 435.737L413.375 441.296L418.343 446.855L423.311 452.413L428.278 457.971L433.246 463.53L438.215 469.09L443.183 474.648L448.151 480.206L458.088 491.324L460.278 493.771C459.983 493.785 459.688 493.798 459.393 493.808L456.905 491.025L451.938 485.466L446.97 479.908L442.002 474.349L437.034 468.79L432.065 463.231L427.097 457.673L422.129 452.115L417.16 446.556L412.192 440.997L407.223 435.438L402.255 429.879L397.287 424.32L392.318 418.762L387.35 413.202L382.382 407.643L381.57 406.735C381.579 406.407 381.589 406.079 381.602 405.75Z" fill="#2887FA"/>
<path d="M388.356 374.394L388.536 374.594L393.504 380.153L398.473 385.713L403.441 391.272L408.41 396.83L413.38 402.388L418.342 407.946L423.31 413.505L428.278 419.063L433.246 424.622L438.215 430.179L443.183 435.737L448.151 441.297L453.12 446.855L458.088 452.413L463.057 457.972L468.027 463.531L472.994 469.089L477.964 474.647L482.931 480.206L487.899 485.765L488.302 486.215L487.673 486.536L486.958 485.736L486.716 485.466L481.748 479.907L476.78 474.348L471.811 468.789L466.843 463.231L461.874 457.672L456.906 452.114L451.936 446.555L446.969 440.997L442.001 435.438L437.033 429.878L432.064 424.319L427.096 418.761L422.128 413.203L417.16 407.643L412.193 402.084L407.223 396.526L402.256 390.967L397.288 385.409L392.318 379.85L388.07 375.093C388.162 374.862 388.258 374.628 388.356 374.394Z" fill="#2887FA"/>
<path d="M386.602 379.022C386.687 378.775 386.773 378.529 386.859 378.285L388.53 380.154L393.498 385.713L398.467 391.273L403.435 396.831L408.404 402.389L413.374 407.948L418.341 413.507L423.309 419.066L430.762 427.405L433.246 430.182L438.216 435.741L443.185 441.3L448.153 446.858L453.122 452.417L458.094 457.97L463.064 463.529L468.033 469.088L473.001 474.646L477.97 480.205L482.938 485.764L484.831 487.882C484.613 487.98 484.393 488.075 484.172 488.171L481.757 485.465L476.789 479.907L471.82 474.347L461.882 463.23L456.913 457.672L451.945 452.113L442.009 440.996L437.041 435.437L432.072 429.878L427.102 424.318L422.135 418.76L417.165 413.202L412.197 407.643L407.228 402.084L402.26 396.525L397.288 390.972L392.319 385.414L387.351 379.855L386.602 379.022Z" fill="#2887FA"/>
<path d="M393.644 363.637L398.476 369.038L403.443 374.596L408.413 380.155L413.382 385.714L418.35 391.273L423.318 396.832L428.287 402.39L433.255 407.948L438.224 413.507L443.192 419.067L448.16 424.626L453.129 430.182L458.097 435.741L463.066 441.3L468.036 446.858L473.003 452.416L477.973 457.975L482.941 463.534L487.908 469.093L492.878 474.651L497.846 480.21L497.929 480.3C497.743 480.435 497.558 480.57 497.372 480.704L496.664 479.912L491.697 474.353L486.727 468.794L481.759 463.236L476.792 457.677L471.822 452.119L461.878 440.995L456.91 435.436L451.942 429.877L443.904 420.881L442.007 418.758L437.039 413.198L432.069 407.639L427.1 402.08L422.132 396.522L417.163 390.963L412.195 385.404L407.222 379.856L402.254 374.298L397.286 368.739L393.281 364.259C393.4 364.051 393.52 363.843 393.644 363.637Z" fill="#2887FA"/>
<path d="M391.414 367.724C391.524 367.508 391.638 367.293 391.747 367.077L393.496 369.037L398.466 374.596L403.434 380.155L408.403 385.714L413.372 391.273L418.34 396.831L423.308 402.389L428.276 407.948L433.243 413.507L438.213 419.066L443.182 424.625L448.15 430.183L453.119 435.741L458.087 441.3L463.057 446.858L468.026 452.417L472.994 457.975L477.963 463.534L482.931 469.093L487.899 474.652L492.868 480.21L494.843 482.418C494.65 482.546 494.457 482.672 494.26 482.797L491.683 479.913L486.713 474.354L481.744 468.794L476.776 463.236L471.807 457.678L466.839 452.119L461.87 446.56L456.902 441.002L451.934 435.443L446.966 429.884L441.997 424.325L437.029 418.766L432.06 413.207L427.092 407.648L422.124 402.089L417.157 396.53L412.189 390.971L407.219 385.413L402.25 379.855L397.282 374.296L392.313 368.737L391.414 367.724Z" fill="#2887FA"/>
<path d="M399.625 354.681C399.767 354.497 399.907 354.313 400.049 354.131L403.436 357.92L408.405 363.479L413.375 369.038L418.342 374.597L423.31 380.157L428.278 385.716L433.246 391.275L438.215 396.833L443.183 402.383L448.151 407.941L453.12 413.5L458.088 419.059L463.057 424.618L468.025 430.175L472.993 435.733L477.962 441.292L482.93 446.85L487.897 452.409L492.867 457.967L502.804 469.085L506.412 473.121C506.245 473.279 506.083 473.437 505.918 473.595L501.621 468.787L496.652 463.229L491.684 457.671L486.715 452.112L481.745 446.553L476.778 440.995L471.808 435.436L466.84 429.877L461.871 424.317L456.903 418.759L451.935 413.2L446.968 407.642L442 402.082L437.032 396.524L432.063 390.965L427.095 385.407L422.127 379.848L417.16 374.29L412.192 368.731L407.222 363.172L402.253 357.613L399.625 354.681Z" fill="#2887FA"/>
<path d="M401.977 351.75C402.125 351.574 402.271 351.396 402.421 351.221L403.438 352.359L408.407 357.918L413.376 363.477L418.344 369.036L423.312 374.595L428.281 380.153L433.249 385.713L438.218 391.272L443.186 396.83L448.154 402.388L453.123 407.947L458.091 413.506L463.061 419.065L468.03 424.624L472.998 430.181L477.967 435.739L482.94 441.292L487.908 446.851L492.877 452.409L497.845 457.967L502.814 463.526L507.782 469.086L509.018 470.468C508.862 470.635 508.703 470.801 508.546 470.968L506.598 468.79L501.631 463.232L496.661 457.673L491.693 452.115L486.724 446.556L481.756 440.997L476.788 435.438L471.82 429.881L462.246 419.169L461.884 418.763L456.914 413.204L451.946 407.645L446.979 402.086L442.011 396.528L437.043 390.969L432.074 385.41L427.104 379.852L422.134 374.297L417.165 368.739L412.197 363.179L407.228 357.62L402.26 352.061L401.977 351.75Z" fill="#2887FA"/>
<path d="M397.391 357.741C397.524 357.549 397.658 357.357 397.793 357.166L398.467 357.916L403.435 363.474L408.404 369.033L413.37 374.591L418.338 380.151L423.306 385.71L428.275 391.269L433.243 396.827L438.212 402.386L443.18 407.944L448.148 413.503L453.117 419.061L458.085 424.62L463.054 430.177L468.022 435.735L477.717 446.582L477.959 446.853L482.927 452.411L487.902 457.97L492.871 463.529L497.839 469.088L502.809 474.646L503.703 475.646C503.532 475.797 503.361 475.947 503.188 476.097L501.626 474.348L496.656 468.789L491.689 463.23L486.719 457.672L481.752 452.114L476.784 446.555L471.814 440.996L466.847 435.437L461.877 429.878L456.908 424.319L451.94 418.761L446.972 413.202L442.005 407.643L437.037 402.084L432.067 396.526L427.098 390.967L422.13 385.408L417.161 379.85L412.193 374.292L407.224 368.732L402.256 363.174L397.391 357.741Z" fill="#2887FA"/>
<path d="M404.445 348.953C404.6 348.786 404.753 348.613 404.909 348.445L408.408 352.36L413.377 357.919L418.345 363.478L423.313 369.037L428.28 374.595L433.248 380.154L438.217 385.713L443.185 391.273L448.153 396.831L453.122 402.389L458.09 407.947L463.06 413.507L468.029 419.066L475.482 427.405L477.965 430.182L482.933 435.741L487.901 441.3L492.87 446.858L497.838 452.416L502.807 457.975L507.777 463.534L511.496 467.699C511.347 467.874 511.194 468.044 511.043 468.218L506.594 463.24L501.626 457.682L496.657 452.123L486.72 441.006L481.752 435.447L476.784 429.888L471.815 424.328L466.847 418.77L461.878 413.211L456.91 407.652L451.942 402.093L446.974 396.534L442.007 390.975L437.039 385.417L432.069 379.859L427.102 374.3L422.134 368.742L417.166 363.184L412.198 357.624L407.229 352.065L404.445 348.953Z" fill="#2887FA"/>
<path d="M448.157 330.129L453.127 335.688L458.095 341.246L463.064 346.804L468.033 352.363L473.001 357.921L477.971 363.48L482.938 369.039L487.906 374.598L492.876 380.157L497.843 385.717L502.813 391.276L507.78 396.834L512.748 402.392L517.716 407.951L522.684 413.51L527.651 419.069L531.316 423.165C531.273 423.459 531.233 423.754 531.186 424.045L526.47 418.771L521.501 413.212L516.533 407.652L511.564 402.093L506.596 396.535L501.628 390.976L496.659 385.418L491.691 379.859L486.722 374.301L481.752 368.742L476.784 363.183L471.815 357.624L466.847 352.064L461.878 346.505L456.91 340.947L451.942 335.389L446.975 329.83L443.922 326.415C444.183 326.364 444.445 326.317 444.708 326.269L448.157 330.129Z" fill="#2887FA"/>
<path d="M453.123 330.129L458.09 335.691L463.06 341.25L468.029 346.808L472.997 352.366L477.966 357.925L482.934 363.484L487.902 369.043L492.871 374.602L497.839 380.16L502.808 385.72L507.778 391.279L512.746 396.837L517.713 402.395L522.681 407.954L527.649 413.513L531.897 418.266C531.869 418.574 531.834 418.879 531.803 419.182L531.435 418.77L526.466 413.211L521.498 407.652L516.531 402.093L511.561 396.535L506.593 390.976L501.626 385.417L496.656 379.859L491.688 374.301L486.719 368.742L481.752 363.179L476.784 357.62L471.815 352.061L466.847 346.502L461.878 340.943L456.908 335.385L451.941 329.827L448.266 325.714C448.539 325.679 448.813 325.64 449.088 325.609L453.123 330.129Z" fill="#2887FA"/>
<path d="M458.091 330.13L463.06 335.688L468.029 341.246L472.997 346.805L477.967 352.363L482.934 357.921L487.902 363.481L492.871 369.04L497.839 374.598L502.809 380.157L507.776 385.716L512.744 391.275L517.712 396.834L522.68 402.392L527.647 407.95L532.229 413.072C532.215 413.4 532.206 413.729 532.191 414.054L531.436 413.211L526.467 407.652L521.498 402.093L516.53 396.535L511.56 390.976L506.593 385.417L501.625 379.859L496.656 374.301L491.688 368.742L486.717 363.181L481.747 357.622L476.78 352.063L471.81 346.504L466.842 340.946L461.873 335.387L456.905 329.829L452.844 325.284C453.136 325.267 453.427 325.255 453.722 325.241L458.091 330.13Z" fill="#2887FA"/>
<path d="M463.066 330.129L468.036 335.687L473.003 341.245L477.973 346.803L482.941 352.362L487.908 357.92L492.878 363.479L497.846 369.038L502.815 374.597L507.784 380.156L512.752 385.715L517.72 391.274L522.688 396.832L527.655 402.391L532.282 407.568C532.29 407.913 532.291 408.26 532.294 408.605L531.441 407.65L526.472 402.091L521.504 396.533L516.536 390.973L511.567 385.415L506.599 379.857L501.632 374.297L496.663 368.738L491.695 363.179L486.726 357.62L481.758 352.061L476.79 346.502L471.821 340.944L466.853 335.385L461.884 329.827L457.719 325.17C458.028 325.17 458.338 325.176 458.647 325.183L463.066 330.129Z" fill="#2887FA"/>
<path d="M473.002 330.128L477.971 335.687L482.939 341.245L487.907 346.803L492.876 352.361L497.844 357.92L502.814 363.479L507.781 369.038L512.749 374.597L517.717 380.156L522.685 385.715L527.652 391.274L531.226 395.272C531.289 395.681 531.352 396.09 531.409 396.501L526.469 390.975L521.501 385.416L516.533 379.858L511.564 374.3L506.596 368.741L501.628 363.182L496.659 357.622L491.691 352.063L486.722 346.504L481.754 340.946L476.789 335.388L471.819 329.829L468.539 326.159C468.906 326.222 469.271 326.293 469.638 326.362L473.002 330.128Z" fill="#2887FA"/>
<path d="M471.82 491.022L466.852 485.464L461.883 479.905L456.915 474.349L451.946 468.79L446.978 463.232L442.01 457.674L437.043 452.115L432.073 446.556L427.105 440.998L422.138 435.439L417.17 429.88L412.202 424.32L407.233 418.762L402.265 413.204L397.297 407.645L392.328 402.085L387.36 396.527L383.195 391.863C383.249 391.582 383.303 391.3 383.362 391.021L383.582 391.266L388.55 396.825L393.517 402.383L398.487 407.941L403.454 413.499L408.424 419.059L413.393 424.618L418.361 430.174L423.329 435.733L433.024 446.579L433.266 446.85L438.235 452.409L443.203 457.967L448.171 463.526L453.14 469.084L458.108 474.643L463.077 480.201L468.047 485.76L473.015 491.318L473.459 491.818C473.21 491.881 472.96 491.941 472.71 492.002L471.835 491.022H471.82Z" fill="#2887FA"/>
<path d="M471.818 485.46L466.85 479.902L461.881 474.343L456.912 468.784L451.944 463.225L446.976 457.667L442.008 452.109L437.041 446.55L432.071 440.991L427.103 435.432L422.136 429.873L417.166 424.314L412.199 418.755L407.229 413.196L402.261 407.638L397.294 402.079L392.324 396.521L387.356 390.961L384.156 387.38C384.221 387.111 384.284 386.842 384.351 386.574L388.539 391.26L393.507 396.819L398.476 402.377L403.444 407.935L408.414 413.495L413.383 419.054L418.351 424.613L423.318 430.169L428.286 435.728L433.254 441.287L438.223 446.845L443.191 452.404L448.158 457.973L458.095 469.09L463.065 474.648L468.032 480.207L477.416 490.699C477.177 490.774 476.937 490.844 476.695 490.917L471.818 485.46Z" fill="#2887FA"/>
<path d="M476.785 485.464L471.815 479.906L466.847 474.347L461.878 468.788L456.907 463.233L451.939 457.674L446.971 452.116L442.002 446.557L437.034 440.999L432.065 435.439L427.097 429.88L419.058 420.884L417.162 418.761L412.194 413.202L407.224 407.643L402.257 402.084L397.289 396.525L392.32 390.966L387.352 385.408L385.297 383.109C385.373 382.852 385.446 382.593 385.524 382.337L388.535 385.706L393.502 391.265L398.472 396.824L403.439 402.382L408.409 407.94L413.378 413.499L418.346 419.059L423.314 424.618L428.282 430.174L433.249 435.733L438.219 441.292L443.186 446.85L448.154 452.408L453.124 457.967L458.091 463.526L463.061 469.085L468.03 474.643L472.998 480.202L477.967 485.761L481.203 489.381C480.973 489.464 480.743 489.547 480.513 489.631L476.785 485.464Z" fill="#2887FA"/>
<path d="M481.789 329.868C482.268 330.055 482.745 330.246 483.22 330.443L487.907 335.691L492.877 341.249L497.844 346.807L502.814 352.365L507.781 357.924L512.749 363.483L517.717 369.041L522.685 374.6L527.58 380.077C527.756 380.608 527.928 381.142 528.095 381.678L526.47 379.86L521.502 374.302L516.534 368.743L511.565 363.185L506.597 357.626L501.629 352.066L496.66 346.507L491.692 340.949L486.723 335.391L481.789 329.868Z" fill="#2887FA"/>
<path d="M486.727 479.905L481.759 474.346L476.791 468.787L471.822 463.229L466.854 457.671L461.884 452.112L456.915 446.553L451.947 440.995L446.98 435.436L442.012 429.876L437.044 424.317L432.075 418.759L427.105 413.2L422.137 407.642L417.168 402.082L412.2 396.524L407.231 390.965L402.263 385.407L397.295 379.848L392.326 374.29L389.68 371.33C389.782 371.103 389.887 370.878 389.992 370.653L393.509 374.589L398.478 380.148L403.446 385.709L408.415 391.268L413.385 396.826L418.353 402.385L423.32 407.943L428.29 413.501L433.257 419.061L438.227 424.62L443.195 430.176L448.162 435.735L458.1 446.852L463.069 452.41L468.037 457.969L477.731 468.816L477.974 469.086L482.942 474.645L487.909 480.203L491.65 484.387C491.449 484.504 491.248 484.622 491.045 484.737L486.727 479.905Z" fill="#2887FA"/>
<path d="M492.249 334.987L492.874 335.687L497.841 341.245L502.811 346.803L507.78 352.362L512.748 357.92L517.716 363.478L522.683 369.038L523.516 369.968C523.85 370.665 524.172 371.367 524.484 372.075L521.501 368.739L516.534 363.179L511.564 357.621L506.596 352.062L501.629 346.503L496.659 340.944L491.692 335.386L490.367 333.904C490.999 334.257 491.626 334.618 492.249 334.987Z" fill="#2887FA"/>
<path d="M496.663 474.347L486.968 463.501L486.726 463.231L481.758 457.672L476.79 452.114L471.821 446.555L466.853 440.997L461.884 435.437L456.916 429.878L451.948 424.319L446.981 418.761L442.013 413.202L437.045 407.643L432.076 402.084L427.108 396.526L422.14 390.967L417.172 385.408L412.205 379.85L407.235 374.292L402.266 368.733L397.298 363.175L395.289 360.926C395.416 360.725 395.543 360.527 395.671 360.328L398.481 363.473L403.449 369.031L408.418 374.589L413.388 380.148L418.355 385.707L423.323 391.267L428.291 396.825L433.259 402.383L438.228 407.942L443.196 413.501L448.163 419.06L458.101 430.176L463.07 435.735L468.039 441.294L473.007 446.852L477.977 452.411L482.944 457.969L487.912 463.528L492.881 469.087L497.849 474.645L500.88 478.037C500.703 478.18 500.525 478.324 500.346 478.465L496.663 474.347Z" fill="#2887FA"/>
<path d="M513.867 464.779C513.726 464.961 513.58 465.14 513.436 465.322L511.568 463.231L506.6 457.673L501.632 452.114L496.663 446.555L491.695 440.997L486.721 435.438L481.753 429.879L476.785 424.319L471.816 418.761L466.848 413.203L461.879 407.644L456.909 402.084L451.941 396.526L446.974 390.967L442.006 385.409L437.038 379.85L432.069 374.292L427.099 368.733L422.132 363.175L417.162 357.616L412.194 352.056L407.225 346.497L407.023 346.273C407.186 346.112 407.346 345.949 407.509 345.79L408.408 346.795L413.377 352.354L418.345 357.912L423.313 363.471L428.28 369.029L433.248 374.588L438.218 380.147L443.185 385.706L448.153 391.265L453.123 396.824L458.09 402.382L463.06 407.94L468.029 413.499L472.997 419.058L477.966 424.617L482.934 430.173L487.902 435.732L492.871 441.291L497.839 446.849L502.808 452.408L507.776 457.966L512.744 463.525L513.867 464.779Z" fill="#2887FA"/>
<path d="M518.245 458.565C518.118 458.765 517.988 458.961 517.858 459.159L516.532 457.674L511.562 452.116L506.593 446.557L501.625 440.999L496.656 435.44L491.688 429.88L486.718 424.321L481.751 418.763L476.783 413.204L471.814 407.645L466.846 402.091L461.876 396.532L456.907 390.973L451.939 385.415L446.971 379.856L442.004 374.298L437.036 368.739L432.067 363.18L427.097 357.621L422.129 352.062L417.16 346.502L412.531 341.324C412.709 341.18 412.884 341.035 413.061 340.892L413.374 341.242L418.342 346.801L423.31 352.359L428.277 357.917L433.245 363.476L438.215 369.036L443.182 374.595L448.15 380.154L453.12 385.712L458.088 391.271L463.058 396.83L468.027 402.388L472.995 407.946L477.964 413.505L482.932 419.064L487.9 424.624L492.869 430.18L497.837 435.739L502.806 441.298L507.774 446.856L512.742 452.414L517.709 457.973L518.245 458.565Z" fill="#2887FA"/>
<path d="M516.535 452.116L506.598 440.999L501.631 435.44L496.661 429.881L488.622 420.885L486.725 418.761L481.755 413.202L476.788 407.643L471.818 402.084L466.85 396.526L461.881 390.967L456.913 385.408L451.946 379.85L446.978 374.292L442.005 368.738L437.037 363.178L432.068 357.619L427.1 352.06L422.132 346.501L417.165 340.943L415.469 339.045C415.653 338.909 415.836 338.773 416.021 338.639L418.347 341.241L423.315 346.799L428.285 352.357L433.252 357.916L438.222 363.475L443.19 369.034L448.157 374.593L453.127 380.151L458.094 385.711L463.064 391.27L468.033 396.828L473.001 402.386L477.97 407.945L482.938 413.504L487.906 419.063L492.875 424.622L497.843 430.179L502.812 435.737L507.782 441.296L512.75 446.855L517.717 452.413L520.26 455.257C520.14 455.464 520.017 455.674 519.896 455.875L516.535 452.116Z" fill="#2887FA"/>
<path d="M515.711 462.307L511.57 457.674L506.603 452.116L501.635 446.556L496.665 440.998L491.698 435.439L486.728 429.88L481.759 424.321L476.791 418.762L471.822 413.203L466.854 407.645L461.885 402.086L456.917 396.527L451.949 390.968L446.981 385.41L442.009 379.855L437.041 374.297L432.071 368.737L427.104 363.178L422.136 357.62L417.168 352.061L412.2 346.502L409.727 343.735C409.893 343.582 410.064 343.428 410.235 343.277L413.384 346.801L418.352 352.359L423.32 357.917L428.289 363.476L433.257 369.035L438.226 374.594L443.194 380.153L448.162 385.712L453.131 391.271L458.099 396.83L463.068 402.388L468.038 407.946L473.005 413.505L477.975 419.064L482.943 424.623L487.91 430.18L492.88 435.738L502.814 446.854L507.782 452.412L512.75 457.97L516.117 461.738C515.986 461.928 515.848 462.115 515.711 462.307Z" fill="#2887FA"/>
<path d="M522.685 446.854L523.908 448.222C523.803 448.445 523.697 448.668 523.591 448.894L521.501 446.555L516.533 440.997L511.564 435.437L506.596 429.878L501.628 424.319L496.659 418.761L491.691 413.203L486.721 407.643L481.752 402.084L476.784 396.526L471.815 390.967L466.847 385.408L461.878 379.85L456.911 374.296L451.943 368.737L446.975 363.179L442.008 357.619L437.04 352.06L432.07 346.501L427.103 340.943L422.135 335.384L421.711 334.909C421.91 334.791 422.109 334.671 422.31 334.556L423.318 335.683L428.287 341.242L433.255 346.8L438.224 352.358L443.192 357.917L448.16 363.476L453.129 369.034L458.097 374.593L463.066 380.152L468.036 385.712L473.004 391.271L477.973 396.829L482.941 402.387L487.908 407.946L492.878 413.505L497.846 419.063L502.815 424.622L507.783 430.179L512.75 435.737L522.445 446.584L522.686 446.855L522.685 446.854Z" fill="#2887FA"/>
<path d="M521.507 440.997L516.539 435.438L511.57 429.879L506.602 424.32L501.634 418.762L496.665 413.202L491.697 407.644L486.727 402.085L481.76 396.527L476.792 390.968L471.823 385.409L466.855 379.851L461.885 374.293L456.916 368.733L451.948 363.174L446.98 357.616L442.013 352.057L437.045 346.498L432.076 340.939L427.106 335.381L425.031 333.058C425.239 332.949 425.448 332.839 425.655 332.731L428.29 335.68L433.253 341.243L438.222 346.802L443.191 352.36L448.159 357.918L453.129 363.477L458.096 369.036L463.066 374.595L468.035 380.154L473.003 385.713L477.972 391.272L482.94 396.831L487.908 402.389L492.877 407.947L497.845 413.506L502.814 419.065L507.784 424.624L512.751 430.181L517.719 435.739L522.689 441.298L525.538 444.486C525.442 444.719 525.343 444.951 525.246 445.184L521.507 440.997Z" fill="#2887FA"/>
<path d="M521.807 452.457L521.503 452.116L516.535 446.557L511.565 440.998L506.598 435.439L501.627 429.884L496.658 424.325L491.69 418.767L486.721 413.209L481.753 407.649L476.785 402.09L471.816 396.532L466.848 390.973L461.879 385.414L456.909 379.856L451.942 374.298L446.974 368.74L442.006 363.181L437.038 357.622L432.069 352.063L427.1 346.504L422.132 340.945L418.523 336.909C418.716 336.782 418.907 336.654 419.1 336.528L423.315 341.245L428.283 346.803L433.251 352.361L438.22 357.919L443.19 363.479L448.157 369.038L453.127 374.596L458.095 380.155L463.064 385.714L468.033 391.273L473.001 396.832L477.971 402.39L482.939 407.945L487.907 413.504L492.876 419.063L502.814 430.18L507.781 435.738L512.749 441.297L517.717 446.856L522.147 451.813C522.036 452.028 521.922 452.24 521.807 452.457Z" fill="#2887FA"/>
<path d="M526.475 385.413L521.506 379.855L516.538 374.297L511.569 368.738L506.601 363.179L501.633 357.62L496.664 352.061L491.696 346.502L486.727 340.943L481.757 335.385L476.79 329.827L474.742 327.536C475.149 327.646 475.557 327.758 475.961 327.875L477.972 330.124L482.94 335.682L487.908 341.241L492.877 346.799L497.845 352.357L502.814 357.916L507.784 363.475L512.752 369.034L517.719 374.592L522.687 380.151L527.655 385.711L529.874 388.194C529.98 388.647 530.078 389.103 530.178 389.558L526.475 385.413Z" fill="#2887FA"/>
<path d="M526.471 424.322L521.503 418.764L516.535 413.205L511.566 407.646L506.598 402.087L501.63 396.529L496.661 390.97L491.693 385.411L486.724 379.853L481.756 374.295L476.788 368.736L471.819 363.176L466.851 357.618L461.882 352.059L456.909 346.503L451.941 340.945L446.973 335.387L442.006 329.828L439.789 327.348C440.039 327.283 440.289 327.224 440.539 327.161L443.189 330.126L448.157 335.685L453.126 341.243L458.094 346.801L463.064 352.36L468.033 357.918L473.001 363.476L477.97 369.035L482.938 374.595L487.906 380.154L492.875 385.713L497.843 391.272L502.812 396.83L507.782 402.389L512.749 407.947L517.717 413.505L522.685 419.064L527.653 424.624L530.515 427.825C530.46 428.105 530.407 428.386 530.349 428.666L526.471 424.322Z" fill="#2887FA"/>
<path d="M528.121 437.28L526.475 435.439L521.507 429.88L516.54 424.32L511.57 418.762L506.602 413.203L501.635 407.644L496.665 402.085L491.698 396.526L486.728 390.967L481.76 385.409L476.793 379.851L471.823 374.292L466.855 368.734L461.886 363.175L456.917 357.616L451.949 352.056L446.98 346.507L442.013 340.949L437.045 335.391L432.094 329.852C432.319 329.763 432.544 329.672 432.772 329.585L433.258 330.131L438.228 335.689L443.197 341.247L448.165 346.805L453.134 352.364L458.102 357.922L463.071 363.481L468.041 369.04L473.009 374.599L477.978 380.158L482.946 385.717L487.913 391.276L492.883 396.834L497.851 402.393L502.82 407.951L507.789 413.51L512.757 419.069L520.209 427.408L522.693 430.186L527.66 435.744L528.361 436.528C528.283 436.775 528.2 437.026 528.121 437.28Z" fill="#2887FA"/>
<path d="M526.469 429.88L521.499 424.321L516.532 418.763L511.562 413.204L506.594 407.645L501.627 402.086L496.657 396.528L491.69 390.968L486.72 385.41L481.751 379.852L476.783 374.294L471.814 368.734L466.846 363.176L461.876 357.617L456.909 352.058L451.941 346.499L446.973 340.94L442.005 335.382L437.038 329.824L435.852 328.498C436.088 328.42 436.326 328.343 436.565 328.269L438.221 330.122L443.184 335.688L448.152 341.246L453.121 346.804L458.089 352.363L463.058 357.921L468.028 363.48L472.996 369.038L477.965 374.597L482.933 380.156L487.9 385.715L492.87 391.274L497.838 396.832L502.807 402.391L507.775 407.949L512.743 413.508L517.71 419.067L522.678 424.626L527.646 430.182L529.516 432.274C529.45 432.54 529.381 432.806 529.312 433.071L526.469 429.88Z" fill="#2887FA"/>
<path d="M526.757 441.314L526.474 440.996L521.506 435.437L516.539 429.878L506.964 419.165L506.601 418.76L501.634 413.201L496.664 407.641L491.697 402.082L486.725 396.533L481.755 390.974L476.787 385.416L471.818 379.857L466.85 374.293L461.881 368.734L456.913 363.175L451.945 357.616L446.978 352.057L442.01 346.497L437.042 340.939L432.073 335.381L428.484 331.367C428.702 331.269 428.917 331.167 429.136 331.07L433.256 335.68L438.225 341.238L443.193 346.797L448.16 352.355L453.13 357.913L458.098 363.472L463.067 369.031L468.036 374.591L473.004 380.149L477.974 385.708L482.941 391.267L487.909 396.826L492.879 402.384L497.846 407.942L502.816 413.501L507.783 419.06L512.751 424.62L517.719 430.176L522.687 435.735L527.018 440.585C526.937 440.83 526.846 441.07 526.757 441.314Z" fill="#2887FA"/>
<path d="M531.442 402.089L526.473 396.53L521.503 390.971L516.536 385.413L511.567 379.856L506.599 374.297L501.632 368.738L496.657 363.18L491.693 357.624L486.723 352.065L481.754 346.506L476.786 340.947L471.817 335.389L466.849 329.831L462.914 325.428C463.247 325.458 463.58 325.493 463.919 325.528L468.032 330.129L472.999 335.687L477.969 341.246L482.937 346.804L487.904 352.362L492.874 357.921L497.842 363.479L502.811 369.038L507.779 374.597L512.746 380.156L517.714 385.715L522.682 391.275L527.65 396.833L531.972 401.664C532.004 402.039 532.034 402.414 532.062 402.789L531.442 402.089Z" fill="#2887FA"/>
</g>
<path d="M386.59 247.118H268.227V466.403H386.59V247.118Z" stroke="black" stroke-linecap="round" stroke-linejoin="round"/>
<path d="M590.468 376.154H527.461V466.753H590.468V376.154Z" stroke="black" stroke-linecap="round" stroke-linejoin="round"/>
<path d="M390.328 83.369L407.384 60.6543H390.328V83.369Z" stroke="#5B32FF" stroke-linecap="round" stroke-linejoin="round"/>
<path d="M466.349 60.648V1H390.328V60.653H407.384L407.388 60.6471L466.349 60.648Z" stroke="black" stroke-linecap="round" stroke-linejoin="round"/>
<path d="M408.781 22.0967H452.391" stroke="black" stroke-linecap="round" stroke-linejoin="round"/>
<path d="M408.781 39.9854H441.628" stroke="black" stroke-linecap="round" stroke-linejoin="round"/>
<path d="M341.909 169.405L413.995 186.962C414.806 187.131 415.651 187.014 416.386 186.63C417.121 186.246 417.699 185.62 418.024 184.857L450.868 102.99C452.672 99.1897 456.889 97.742 460.285 99.7644L462.45 101.05L428.347 197.059L428.293 197.172C427.881 198.151 427.128 198.948 426.174 199.415C425.219 199.882 424.128 199.987 423.102 199.712L335.281 174.099C335.986 170.781 338.926 168.697 341.909 169.405Z" fill="#D2D2D2" stroke="black"/>
<path d="M459.315 311.697C459.315 311.697 465.193 325.311 469.571 328.41L481.565 331.597C483.161 331.778 484.686 332.359 486 333.284C487.313 334.21 488.372 335.45 489.08 336.893L457.384 353.302L442.141 320.004L459.315 311.697Z" fill="#2F3140"/>
<path d="M295.07 193.439C295.07 193.439 370.543 196.613 405.949 202.625C416.195 204.365 425.048 211.56 429.811 221.857L471.454 311.882L434.568 333.579L391.85 247.079L314.182 244.49L295.07 193.439Z" fill="white" stroke="black" stroke-linecap="round" stroke-linejoin="round"/>
<path d="M292.108 172.984C293.032 176.618 294.587 180.063 296.701 183.16C314.376 208.26 351.01 177.588 380.955 177.837C385.09 177.872 388.757 177.96 389.644 179.444C391.134 181.943 392.898 185.535 393.983 185.432C395.223 185.315 393.28 180.425 392.174 176.743C392.174 176.743 395.865 186.919 397.212 186.362C398.847 185.686 394.688 174.096 394.688 174.096C394.688 174.096 399.984 185.961 401.345 184.122C402.706 182.283 396.947 171.717 396.947 171.717C396.947 171.717 402.402 181.129 404.15 180.181C405.566 179.411 400.949 172.248 396.197 166.573C393.523 163.283 389.824 160.985 385.69 160.046C381.829 159.223 376.156 158.714 368.044 159.38C368.044 159.38 337.785 163.153 312.595 167.738L302.824 117.192C301.621 110.968 297.41 105.882 291.865 104.454C287.529 103.337 282.649 103.832 279.447 109.491C277.229 113.651 276.736 118.518 278.076 123.038L292.108 172.984Z" fill="white" stroke="black" stroke-linecap="round" stroke-linejoin="round"/>
<path d="M387.353 331.795C387.353 331.795 379.055 348.842 379.475 354.618L384.416 367.257C387.269 372.747 385.155 377.158 385.155 377.158L354.375 358.699L369.028 324.937L387.353 331.795Z" fill="#2F3140"/>
<path d="M287.484 182.737C287.484 182.737 392.923 175.756 423.294 207.759C447.772 233.552 393.785 344.389 393.785 344.389L355.361 326.288L386.59 248.165L296.863 246.86C296.863 246.86 260.389 235.199 269.768 182.735L287.484 182.737Z" fill="white" stroke="black" stroke-linecap="round" stroke-linejoin="round"/>
<path d="M234.422 101.422C234.422 101.422 232.173 88.5113 245.183 83.2228C256.828 78.4908 257.907 65.0869 257.907 65.0869C257.907 65.0869 261.625 54.6033 272.13 55.263C282.634 55.9227 277.348 36.0109 295.242 32.0619C297.929 31.4688 300.406 32.6708 302.568 34.6882C309.204 40.8779 310.29 51.8612 305.548 59.9409L281.2 101.422H234.422Z" fill="#2F3140"/>
<path d="M301.978 112.564L313.453 80.5564L303.458 64.7178L278.828 105.339L301.978 112.564Z" fill="white" stroke="black" stroke-linecap="round" stroke-linejoin="round"/>
<path d="M308.998 90.8327L304 81.8418L311.445 84.1932L308.998 90.8327Z" fill="black" stroke="black" stroke-linecap="round" stroke-linejoin="round"/>
<path d="M284.036 42.595C277.879 55.9473 288.546 75.81 301.229 83.1325C313.913 90.455 324.005 85.6863 328.8 71.6493C333.27 58.5503 330.838 38.9975 318.155 31.6758C305.471 24.3541 290.19 29.2427 284.036 42.595Z" fill="white" stroke="black" stroke-linecap="round" stroke-linejoin="round"/>
<path d="M282.771 46.34C286.791 32.2089 299.55 25.3145 313.307 29.5701C324.135 32.9194 331.104 44.7515 331.846 56.7003C331.691 56.7452 323.109 56.4504 319.447 45.8027C319.447 45.8027 318.425 62.9358 302.276 59.6064L295.101 78.4904C285.519 73.5343 278.318 61.9929 282.771 46.34Z" fill="#2F3140"/>
<path d="M300.501 72.488C298.802 71.8842 297.384 70.6752 296.521 69.092C294.521 65.6352 295.077 61.2622 297.76 59.3173C299.583 57.997 301.49 58.4718 303.151 59.9961" fill="white"/>
<path d="M300.501 72.488C298.802 71.8842 297.384 70.6752 296.521 69.092C294.521 65.6352 295.077 61.2622 297.76 59.3173C299.583 57.997 301.49 58.4718 303.151 59.9961" stroke="black" stroke-linecap="round" stroke-linejoin="round"/>
<path d="M293.363 28.8424C293.106 33.9567 289.193 37.8691 284.622 37.5826C280.052 37.296 276.554 32.918 276.81 27.8028C277.066 22.6877 280.975 18.7761 285.55 19.0626C290.126 19.3492 293.618 23.728 293.363 28.8424Z" fill="#2F3140"/>
<path d="M307.721 102.716L283.316 92.9619C283.316 92.9619 254.05 147.31 253.008 183.454C253.008 183.454 287.484 182.737 317.165 182.371L307.721 102.716Z" fill="#2F3140"/>
<mask id="mask1_1039_973" style="mask-type:luminance" maskUnits="userSpaceOnUse" x="253" y="92" width="65" height="92">
<path d="M307.721 102.716L283.316 92.9619C283.316 92.9619 254.05 147.31 253.008 183.454C253.008 183.454 287.484 182.737 317.165 182.371L307.721 102.716Z" fill="white"/>
</mask>
<g mask="url(#mask1_1039_973)">
<path d="M301.763 118.646H291.93" stroke="white" stroke-linecap="round" stroke-linejoin="round"/>
<path d="M296.842 107.645L287.68 103.395" stroke="white" stroke-linecap="round" stroke-linejoin="round"/>
<path d="M281.422 106.645V118.646" stroke="white" stroke-linecap="round" stroke-linejoin="round"/>
<path d="M286.114 133.147L279.633 125.646" stroke="white" stroke-linecap="round" stroke-linejoin="round"/>
<path d="M299.078 131.647L300.196 140.648" stroke="white" stroke-linecap="round" stroke-linejoin="round"/>
<path d="M290.808 144.149L281.422 146.149" stroke="white" stroke-linecap="round" stroke-linejoin="round"/>
<path d="M273.601 145.148L267.344 138.147" stroke="white" stroke-linecap="round" stroke-linejoin="round"/>
<path d="M286.114 154.4L279.633 160.151" stroke="white" stroke-linecap="round" stroke-linejoin="round"/>
<path d="M279.638 172.315H269.805" stroke="white" stroke-linecap="round" stroke-linejoin="round"/>
<path d="M274.717 161.315L265.555 157.064" stroke="white" stroke-linecap="round" stroke-linejoin="round"/>
<path d="M259.297 160.314V172.316" stroke="white" stroke-linecap="round" stroke-linejoin="round"/>
<path d="M263.989 186.817L257.508 179.316" stroke="white" stroke-linecap="round" stroke-linejoin="round"/>
<path d="M323.849 149.524H314.016" stroke="white" stroke-linecap="round" stroke-linejoin="round"/>
<path d="M318.928 138.524L309.766 134.273" stroke="white" stroke-linecap="round" stroke-linejoin="round"/>
<path d="M308.199 164.026L301.719 156.525" stroke="white" stroke-linecap="round" stroke-linejoin="round"/>
<path d="M312.894 175.027L303.508 177.027" stroke="white" stroke-linecap="round" stroke-linejoin="round"/>
<path d="M295.687 176.028L289.43 169.027" stroke="white" stroke-linecap="round" stroke-linejoin="round"/>
</g>
<path d="M319.814 188.179C321.696 191.289 324.144 194.019 327.03 196.229C350.852 213.85 377.032 171.859 405.529 161.578C409.466 160.157 412.972 158.952 414.229 160.051C416.346 161.898 419.029 164.69 420.029 164.216C421.175 163.668 417.956 159.708 415.874 156.601C415.874 156.601 422.233 164.966 423.356 163.963C424.719 162.742 417.514 153.202 417.514 153.202C417.514 153.202 425.872 162.606 426.649 160.382C427.426 158.157 418.991 150.149 418.991 150.149C418.991 150.149 426.814 157.17 428.206 155.655C429.338 154.424 422.941 149.248 416.837 145.527C413.317 143.332 409.137 142.445 405.029 143.022C401.133 143.598 395.604 145.104 388.088 148.585C388.088 148.585 360.418 162.798 337.787 175.999L314.326 131.441C311.437 125.955 306.014 122.605 300.347 123.195C295.916 123.658 291.422 125.842 289.971 132.339C289.008 136.942 289.906 141.739 292.47 145.682L319.814 188.179Z" fill="white" stroke="black" stroke-linecap="round" stroke-linejoin="round"/>
<path d="M336.843 164.011L309.742 185.444C309.742 185.444 266.495 124.519 286.476 109.797C305.322 95.9112 336.843 164.011 336.843 164.011Z" fill="#2F3140"/>
<mask id="mask2_1039_973" style="mask-type:luminance" maskUnits="userSpaceOnUse" x="281" y="107" width="56" height="79">
<path d="M336.843 164.011L309.742 185.444C309.742 185.444 266.495 124.519 286.476 109.797C305.322 95.9112 336.843 164.011 336.843 164.011Z" fill="white"/>
</mask>
<g mask="url(#mask2_1039_973)">
<path d="M301.763 118.646H291.93" stroke="white" stroke-linecap="round" stroke-linejoin="round"/>
<path d="M296.842 107.646L287.68 103.396" stroke="white" stroke-linecap="round" stroke-linejoin="round"/>
<path d="M281.422 106.646V118.647" stroke="white" stroke-linecap="round" stroke-linejoin="round"/>
<path d="M286.114 133.148L279.633 125.647" stroke="white" stroke-linecap="round" stroke-linejoin="round"/>
<path d="M299.078 131.648L300.196 140.649" stroke="white" stroke-linecap="round" stroke-linejoin="round"/>
<path d="M290.808 144.15L281.422 146.15" stroke="white" stroke-linecap="round" stroke-linejoin="round"/>
<path d="M286.114 154.401L279.633 160.152" stroke="white" stroke-linecap="round" stroke-linejoin="round"/>
<path d="M323.849 149.525H314.016" stroke="white" stroke-linecap="round" stroke-linejoin="round"/>
<path d="M318.928 138.525L309.766 134.274" stroke="white" stroke-linecap="round" stroke-linejoin="round"/>
<path d="M308.199 164.027L301.719 156.526" stroke="white" stroke-linecap="round" stroke-linejoin="round"/>
<path d="M321.164 162.527L322.281 171.528" stroke="white" stroke-linecap="round" stroke-linejoin="round"/>
<path d="M312.894 175.028L303.508 177.028" stroke="white" stroke-linecap="round" stroke-linejoin="round"/>
<path d="M295.687 176.029L289.43 169.028" stroke="white" stroke-linecap="round" stroke-linejoin="round"/>
<path d="M308.199 185.28L301.719 191.031" stroke="white" stroke-linecap="round" stroke-linejoin="round"/>
</g>
<path d="M449.399 78.5029C449.181 82.8843 453.246 86.85 457.096 86.0104C461.573 85.0341 463.749 79.43 467.221 76.124C468.769 74.6488 470.843 73.576 472.808 74.1474C473.736 74.4626 474.575 74.9943 475.256 75.6984C477.952 78.2697 479.482 82.0005 481.36 85.3606C483.237 88.7208 485.847 92.0093 489.343 92.6407C492.741 93.2554 496.16 91.1147 498.346 88.1427C500.532 85.1707 501.722 81.4566 502.873 77.8274" stroke="black" stroke-linecap="round" stroke-linejoin="round"/>
<path d="M549.636 347.179C556.993 345.507 563.379 339.251 565.832 331.309C568.284 323.366 566.711 314.037 561.843 307.639C560.218 305.504 558.095 303.605 555.596 303.34C554.947 303.28 554.293 303.349 553.67 303.543C553.048 303.736 552.47 304.051 551.969 304.468C551.468 304.885 551.054 305.397 550.751 305.974C550.448 306.551 550.262 307.183 550.203 307.832C550.193 308.918 550.461 309.988 550.982 310.941C554.625 318.125 565.183 316.888 569.708 310.364C574.234 303.84 574.113 294.694 572.707 286.586C568.43 261.878 553.683 239.704 533.758 228.021" stroke="black" stroke-linecap="round" stroke-linejoin="round"/>
<path d="M550.886 224.43C547.677 225.028 533.766 228.021 533.766 228.021V248.971" stroke="black" stroke-linecap="round" stroke-linejoin="round"/>
<path d="M537.581 555.223C528.211 572.695 504.929 575.031 488.994 565.162C473.059 555.293 463.053 536.85 454.83 518.67C441.942 490.176 479.06 501.09 464.112 541.364C457.954 557.958 446.893 575.019 430.891 576.575C408.109 578.789 394.34 550.488 380.978 529.723C371.846 515.533 360.782 486.929 346.021 484.151C323.722 479.951 322.948 516.181 320.538 526.121C318.128 536.06 312.35 546.569 303.208 547.778C292.213 549.228 284.278 537.059 276.327 528.434C258.609 509.209 229.581 504.559 207.75 517.446" stroke="black" stroke-linecap="round" stroke-linejoin="round"/>
<path d="M154.68 333.18C141.779 362.833 107.844 378.594 79.9637 367.884C75.7539 366.266 71.5883 364.041 68.5963 360.354C65.6044 356.667 63.9884 351.27 65.4436 346.564C67.5718 339.682 75.8139 336.892 81.7379 339.909C87.6618 342.926 91.1502 350.214 91.8641 357.454C93.4983 373.959 82.3959 389.57 68.7246 396.035C55.0533 402.501 39.5045 401.553 24.8828 398.701" stroke="black" stroke-linecap="round" stroke-linejoin="round"/>
<path d="M44.3898 386.163L24.8828 398.704L38.8965 417.945" stroke="black" stroke-linecap="round" stroke-linejoin="round"/>
<path d="M157.547 394.23H226.486V536.077H157.547V394.23Z" stroke="black"/>
<path d="M157.547 394.23H226.76V520.968H157.547V394.23Z" stroke="black"/>
<path d="M146.205 447.337H76.2656V536.15H146.205V447.337Z" stroke="black" stroke-linecap="round" stroke-linejoin="round"/>
<path d="M125.812 520.03C109.538 507.982 100.262 485.088 102.886 463.454" stroke="black" stroke-linecap="round" stroke-linejoin="round"/>
<path d="M108.763 472.113L102.89 463.45L96.5 471.556" stroke="black" stroke-linecap="round" stroke-linejoin="round"/>
<path d="M120.796 72.6382C122.681 72.6382 124.21 70.9283 124.21 68.8191C124.21 66.7099 122.681 65 120.796 65C118.911 65 117.383 66.7099 117.383 68.8191C117.383 70.9283 118.911 72.6382 120.796 72.6382Z" stroke="black" stroke-linecap="round" stroke-linejoin="round"/>
<path d="M54.5391 282.312C54.5391 286.531 57.596 289.95 61.3693 289.95C65.1426 289.95 68.1996 286.53 68.1996 282.312C68.1996 278.094 65.1426 274.674 61.3693 274.674C57.596 274.674 54.5391 278.094 54.5391 282.312Z" stroke="black" stroke-linecap="round" stroke-linejoin="round"/>
<path d="M219.36 310.948L192.539 275.229H219.36V310.948Z" stroke="#FF51A4" stroke-linecap="round" stroke-linejoin="round"/>
<path d="M99.8203 275.22V181.429H219.365V275.229H192.544L192.537 275.219L99.8203 275.22Z" stroke="black" stroke-linecap="round" stroke-linejoin="round"/>
<path d="M190.344 214.598H121.766" stroke="black" stroke-linecap="round" stroke-linejoin="round"/>
<path d="M190.347 242.729H138.695" stroke="black" stroke-linecap="round" stroke-linejoin="round"/>
<path d="M253.208 126.452C249.092 134.128 238.863 135.154 231.863 130.819C224.863 126.483 220.467 118.381 216.854 110.394C211.19 97.8762 227.498 102.671 220.936 120.363C218.23 127.654 213.372 135.149 206.341 135.832C196.333 136.805 190.284 124.373 184.414 115.249C180.402 109.015 175.542 96.4493 169.057 95.2282C159.26 93.3832 158.921 109.299 157.862 113.667C156.802 118.034 154.264 122.65 150.248 123.18C145.417 123.817 141.932 118.471 138.44 114.684C130.656 106.237 117.903 104.195 108.312 109.857" stroke="black" stroke-linecap="round" stroke-linejoin="round"/>
</svg>
