<svg width="60" height="14" viewBox="0 0 60 14" fill="none" xmlns="http://www.w3.org/2000/svg">
	<path d="M26.4996 10.9937C22.3856 10.9937 23.0981 0.687256 17.4813 0.687256C11.8645 0.687256 12.5772 10.9937 8.46234 10.9937L8.42891 11.0024C7.2245 11.0024 6.51242 9.93386 5.88978 8.4867L4.2695 4.45357L2.75761 0.687256H0L0.0195907 0.736872L2.8249 7.66176C3.99608 10.5654 5.12915 13.9996 8.37141 13.9996H8.42891C14.8144 14.0002 13.7919 3.68485 17.5388 3.68485H17.4236C21.1714 3.68485 20.1493 14 26.5331 14V10.9937H26.4996Z" fill="#0F3C79" />
	<path d="M26.4441 0.687469C32.8296 0.687469 31.8072 11.0026 35.5535 11.0026H35.4388C36.6429 11.0026 37.3552 9.93407 37.9777 8.48692L39.5984 4.45378L41.1118 0.687256H43.8683L43.847 0.736872L41.0426 7.66155C39.8714 10.5652 38.7396 13.9994 35.4969 13.9994C29.8801 13.9994 30.5918 3.69294 26.4769 3.69294H26.4438L26.4441 0.687469Z" fill="#0F3C79" />
	<path d="M59.6606 0.6875H46.3291V3.40869H59.6606V0.6875Z" fill="#0F3C79" />
	<path d="M59.6606 11.2782H46.3291V13.9996H59.6606V11.2782Z" fill="#0F3C79" />
	<path d="M50.7745 5.98254H46.3291V8.70352H50.7745V5.98254Z" fill="#0F3C79" />
</svg>
